<svg xmlns="http://www.w3.org/2000/svg" viewBox="0 0 48 48">
  <defs>
    <linearGradient id="g" x1="0" y1="0" x2="0" y2="1">
      <stop offset="0" stop-color="#363A82"/>
      <stop offset="1" stop-color="#358791"/>
    </linearGradient>
  </defs>
  <rect width="48" height="48" rx="10" fill="url(#g)"/>
  <g fill="#fff">
    <path d="M24 9c.6 0 1.16.34 1.43.9l11.5 23.1a1.6 1.6 0 0 1-1.43 2.3h-4a1.6 1.6 0 0 1-1.45-.98l-1.9-4.32H18.85l-1.9 4.32a1.6 1.6 0 0 1-1.45.98h-4a1.6 1.6 0 0 1-1.43-2.3l11.5-23.1c.27-.56.83-.9 1.43-.9Zm0 9.2-2.9 6.3h5.8L24 18.2Z"/>
  </g>
</svg>

